# xmcd CD database file
#
# Track frame offsets:
#	150
#	13576
#	29172
#	48886
#	68818
#	88214
#	102172
#	121803
#	136651
#	154828
#	176266
#	196701
#
# Disc length: 2888 seconds
#
# Revision: 0
# Processed by: cddbd v1.5.2PL0 Copyright (c) Steve Scherf et al.
# Submitted via: jetAudio 7
#
DISCID=930b460c
DTITLE=Don Dino - Megtisztúltan
DYEAR=1900
DGENRE=Country
TTITLE0=Vadkelet (intro)
TTITLE1=Kedvesemnél
TTITLE2=Az ágrólszakadt
TTITLE3=Nomád jellem
TTITLE4=Miért nincs köztünk egy...
TTITLE5=XXI. századi betyár
TTITLE6=Tölts hát
TTITLE7=Egy vödör sár
TTITLE8=Így lettem betyár
TTITLE9=Fenevad
TTITLE10=Megtisztúltan
TTITLE11=Túlfolyó
EXTD=
EXTT0=
EXTT1=
EXTT2=
EXTT3=
EXTT4=
EXTT5=
EXTT6=
EXTT7=
EXTT8=
EXTT9=
EXTT10=
EXTT11=
PLAYORDER=
